# xmcd
#
# Track frame offsets: 
#        150
#        17628
#        33329
#
# Disc length: 644 seconds
#
# Revision: 0
# Processed by: cddbd v1.5.1PL0 Copyright (c) Steve Scherf et al.
# Submitted via: ExactAudioCopy v0.95a5
#
DISCID=18028203
DTITLE=Gail Bliss - Ready or Not
DYEAR=1998
DGENRE=Country
TTITLE0=Bartender's Blues
TTITLE1=As Plain As The Tears On My Face
TTITLE2=One Mississippi
EXTD=
EXTT0=
EXTT1=
EXTT2=
PLAYORDER=
